<?xml version="1.0" encoding="UTF-8" standalone="no"?>
<!-- Created with Inkscape (http://www.inkscape.org/) -->

<svg
   xmlns:dc="http://purl.org/dc/elements/1.1/"
   xmlns:cc="http://creativecommons.org/ns#"
   xmlns:rdf="http://www.w3.org/1999/02/22-rdf-syntax-ns#"
   xmlns:svg="http://www.w3.org/2000/svg"
   xmlns="http://www.w3.org/2000/svg"
   xmlns:sodipodi="http://sodipodi.sourceforge.net/DTD/sodipodi-0.dtd"
   xmlns:inkscape="http://www.inkscape.org/namespaces/inkscape"
   id="svg3809"
   height="22"
   width="22"
   version="1.1"
   inkscape:version="0.48.4 r9939"
   sodipodi:docname="gpm-phone-080.svg">
  <defs
     id="defs13" />
  <sodipodi:namedview
     pagecolor="#ffffff"
     bordercolor="#666666"
     borderopacity="1"
     objecttolerance="10"
     gridtolerance="10"
     guidetolerance="10"
     inkscape:pageopacity="0"
     inkscape:pageshadow="2"
     inkscape:window-width="1855"
     inkscape:window-height="1056"
     id="namedview11"
     showgrid="false"
     inkscape:zoom="22.627417"
     inkscape:cx="-6.2573057"
     inkscape:cy="4.8759561"
     inkscape:window-x="1665"
     inkscape:window-y="24"
     inkscape:window-maximized="1"
     inkscape:current-layer="svg3809" />
  <metadata
     id="metadata3814">
    <rdf:RDF>
      <cc:Work
         rdf:about="">
        <dc:format>image/svg+xml</dc:format>
        <dc:type
           rdf:resource="http://purl.org/dc/dcmitype/StillImage" />
        <dc:title />
      </cc:Work>
    </rdf:RDF>
  </metadata>
  <path
     id="rect2397-6"
     style="opacity:0.3;fill-rule:evenodd"
     d="M 14.5,16 C 14.223,16 14,16.223 14,16.5 l 0,1 c 0,0.277 0.223,0.5 0.5,0.5 l 3,0 c 0.277,0 0.5,-0.223 0.5,-0.5 l 0,-1 C 18,16.223 17.777,16 17.5,16 z"
     inkscape:connector-curvature="0"
     sodipodi:nodetypes="sssssssss" />
  <path
     id="rect2442-9"
     style="opacity:.3;stroke:#000;stroke-linecap:round;fill:none"
     d="m12.5 18.5v-12c0-0.554 0.446-1 1-1h5c0.554 0 1 0.446 1 1v12c0 0.554-0.446 1-1 1h-5c-0.554 0-1-0.446-1-1zm2.003-13.118c0.0007-0.32804 0.0015-0.65608 0.0025-0.98411 0.04076-0.59782 0.6496-0.97673 1.2122-0.89747 0.53292 0.023433 1.1769-0.12412 1.5549 0.3632 0.35076 0.43848 0.1914 1.0212 0.2278 1.5372" />
  <rect
     id="rect3236-9"
     style="opacity:.3;stroke-width:.5;stroke:#fff;stroke-linecap:round;fill:none"
     transform="rotate(-90)"
     rx=".25"
     ry="0.25"
     height="5.5"
     width="12.5"
     y="13.25"
     x="-17.75" />
  <path
     id="rect2442"
     style="stroke:#dfdbd2;stroke-linecap:round;fill:none"
     d="m12.5 17.5v-12c0-0.554 0.446-1 1-1h5c0.554 0 1 0.446 1 1v12c0 0.554-0.446 1-1 1h-5c-0.554 0-1-0.446-1-1zm2.003-13.118c0.0007-0.32804 0.0015-0.65608 0.0025-0.98411 0.04076-0.59782 0.6496-0.97673 1.2122-0.89747 0.53292 0.023433 1.1769-0.12412 1.5549 0.3632 0.35076 0.43848 0.1914 1.0212 0.2278 1.5372" />
  <rect
     id="rect3728"
     style="fill-rule:evenodd;fill:#dfdbd2"
     rx=".5"
     ry=".5"
     height="9"
     width="4"
     y="8"
     x="14" />
  <g
     id="layer1"
     transform="translate(-6.0047168,-1.0048169)">
    <g
       id="g3790"
       style="opacity:0.3;stroke:#000000"
       transform="translate(0,1.0003)">
      <path
         inkscape:connector-curvature="0"
         id="path3367-2"
         style="fill:none;stroke:#000000;stroke-width:1.41149998;stroke-linecap:round;stroke-linejoin:round"
         d="m 11.789,19.294 3.505,-3.74 -6.5883,-6.6311 m -10e-8,6.0661 L 15.2942,8.3579 11.7426,4.7058" />
      <path
         inkscape:connector-curvature="0"
         id="path3590-1"
         style="fill:none;stroke:#000000;stroke-width:1px;stroke-linecap:round"
         d="m 11.507,4.8749 0.08824,14.156" />
    </g>
    <path
       inkscape:connector-curvature="0"
       id="path3367"
       style="fill:none;stroke:#dfdbd2;stroke-width:1.41149998;stroke-linecap:round;stroke-linejoin:round"
       d="m 11.789,19.294 3.505,-3.74 -6.5883,-6.6311 m -10e-8,6.0661 L 15.2942,8.3579 11.7426,4.7058" />
    <path
       inkscape:connector-curvature="0"
       id="path3590"
       style="fill:none;stroke:#dfdbd2;stroke-width:1px;stroke-linecap:round"
       d="m 11.507,4.8749 0.08824,14.156" />
  </g>
</svg>
