<?xml version="1.0" encoding="UTF-8" standalone="no"?>
<!-- Created with Inkscape (http://www.inkscape.org/) -->

<svg
   xmlns:dc="http://purl.org/dc/elements/1.1/"
   xmlns:cc="http://creativecommons.org/ns#"
   xmlns:rdf="http://www.w3.org/1999/02/22-rdf-syntax-ns#"
   xmlns:svg="http://www.w3.org/2000/svg"
   xmlns="http://www.w3.org/2000/svg"
   xmlns:sodipodi="http://sodipodi.sourceforge.net/DTD/sodipodi-0.dtd"
   xmlns:inkscape="http://www.inkscape.org/namespaces/inkscape"
   id="svg3809"
   height="22"
   width="22"
   version="1.1"
   inkscape:version="0.48.4 r9939"
   sodipodi:docname="zik-audio-headset.svg">
  <defs
     id="defs13" />
  <sodipodi:namedview
     pagecolor="#ffffff"
     bordercolor="#666666"
     borderopacity="1"
     objecttolerance="10"
     gridtolerance="10"
     guidetolerance="10"
     inkscape:pageopacity="0"
     inkscape:pageshadow="2"
     inkscape:window-width="1855"
     inkscape:window-height="1056"
     id="namedview11"
     showgrid="false"
     inkscape:zoom="32"
     inkscape:cx="21.544184"
     inkscape:cy="10.750492"
     inkscape:window-x="1665"
     inkscape:window-y="24"
     inkscape:window-maximized="1"
     inkscape:current-layer="svg3809"
     inkscape:snap-global="false" />
  <metadata
     id="metadata3814">
    <rdf:RDF>
      <cc:Work
         rdf:about="">
        <dc:format>image/svg+xml</dc:format>
        <dc:type
           rdf:resource="http://purl.org/dc/dcmitype/StillImage" />
        <dc:title />
      </cc:Work>
    </rdf:RDF>
  </metadata>
  <path
     d="m 2.8385944,19.495681 0,-0.426691 0.4861359,-0.02053 C 4.6329759,18.993194 4.9660094,18.657446 5.0469575,17.312189 5.0861343,16.66112 5.0870863,5.3388232 5.0480217,4.6561769 4.9943398,3.7180972 4.8090015,3.4135321 4.1962751,3.2565082 4.0097925,3.2087181 3.3505379,3.1435615 3.028105,3.1410535 l -0.1235939,-9.614e-4 0,-0.392186 0,-0.392186 1.3595326,0.00493 c 0.7477429,0.00271 2.2642397,-0.00188 3.3699929,-0.010201 1.8142882,-0.01365 2.0458355,-0.00941 2.3730024,0.043433 1.096034,0.177036 2.031387,0.5181079 2.78644,1.0160615 0.769191,0.507278 1.511614,1.4644121 1.808665,2.3317356 0.334058,0.9753781 0.347574,2.1562523 0.03624,3.1661319 -0.523711,1.6987559 -2.099523,3.0883919 -3.924578,3.4609019 -0.44565,0.09096 -1.1971589,0.131308 -2.448294,0.131443 l -1.0823623,1.32e-4 0.014951,2.644909 c 0.016077,2.844078 0.018678,2.887995 0.1910538,3.226425 0.1213421,0.238234 0.2203444,0.344317 0.4212906,0.45142 0.2949484,0.157206 0.5261816,0.204749 1.100731,0.226318 l 0.5190942,0.01949 0,0.402789 0,0.402789 -3.0898467,-9.59e-4 c -1.6994158,-5.27e-4 -3.1825422,0.01027 -3.2958366,0.02398 l -0.2059898,0.02493 0,-0.426691 z M 10.007624,11.352468 C 11.216255,11.094732 12.111915,10.180812 12.44476,8.8656434 12.64782,8.0632948 12.648184,7.0815573 12.445719,6.2834138 12.356398,5.9313035 12.083,5.3321702 11.855457,4.9898962 11.333408,4.2046226 10.538188,3.6795309 9.4646787,3.4112409 9.1502727,3.332665 9.055931,3.324246 8.4744749,3.3228767 8.1209965,3.3220442 7.687182,3.3338707 7.5104427,3.3491577 l -0.321344,0.027795 0,3.9815413 0,3.9815414 0.2389481,0.02424 c 0.9567155,0.09706 2.0934379,0.09186 2.5795772,-0.01181 z"
     id="path3000"
     inkscape:connector-curvature="0"
     style="fill:#000000;fill-opacity:0" />
  <text
     xml:space="preserve"
     style="font-size:40px;font-style:italic;font-weight:normal;line-height:125%;letter-spacing:0px;word-spacing:0px;fill:#000000;fill-opacity:1;stroke:none;font-family:Sans;-inkscape-font-specification:Sans Italic"
     x="6.0313811"
     y="10.596406"
     id="text3002"
     sodipodi:linespacing="125%"><tspan
       sodipodi:role="line"
       id="tspan3004" /></text>
  <g
     id="g4004"
     transform="matrix(0.98416476,0,0,0.98416476,-25.217436,2.3988262)"
     style="fill:#b3b3b3;fill-opacity:1">
    <g
       id="g3991"
       style="fill:#b3b3b3;fill-opacity:1">
      <path
         inkscape:connector-curvature="0"
         d="m 27.632707,0.0735686 c 0,0.1815164 0.168551,0.2673785 0.868685,0.3840671 0.985373,0.168551 1.426199,0.4537906 1.750334,1.0890969 0.207448,0.4019291 0.233379,1.0242699 0.233379,7.3903024 l 0,6.949476 -0.298205,0.42786 c -0.388964,0.59641 -0.972409,0.907581 -1.841093,0.998339 -0.583446,0.06484 -0.7131,0.116689 -0.7131,0.311171 0,0.233378 0.194482,0.246343 4.278596,0.246343 4.187836,0 4.278596,0 4.278596,-0.259309 0,-0.207447 -0.09076,-0.259309 -0.466757,-0.259309 -0.790892,0 -1.568818,-0.259309 -1.957781,-0.674203 l -0.363032,-0.375998 -0.0389,-7.844091 -0.0389,-7.8311273 1.607714,0 c 1.854057,0 2.593088,0.1815164 3.474737,0.8297882 0.907582,0.6742033 1.322476,1.6077144 1.387302,3.1246712 0.103724,2.3337795 -0.674202,3.8118399 -2.372676,4.5379039 -0.285239,0.11669 -1.037235,0.246344 -1.659575,0.285241 -1.063166,0.06484 -1.140959,0.09075 -1.102063,0.350066 0.0389,0.25931 0.129654,0.272275 1.465095,0.311171 1.659577,0.05186 2.670881,-0.116689 3.759978,-0.62234 1.115028,-0.505653 1.802196,-1.153926 2.294883,-2.1781957 0.375998,-0.7519957 0.427859,-1.0113037 0.466755,-2.1004015 0.0389,-1.0113046 0,-1.3613712 -0.233378,-1.9707466 -0.375997,-1.0113045 -1.348406,-2.0615052 -2.372676,-2.5671575 -1.439163,-0.7001341 -2.113366,-0.7779265 -7.506989,-0.7779265 -4.628662,0 -4.900937,0.0049 -4.900929,0.2253084 z"
         id="path8"
         sodipodi:nodetypes="cccscccssssccccscccccccccccsc"
         style="fill:#b3b3b3;fill-opacity:1;stroke-width:0;stroke-miterlimit:4;stroke-dasharray:none;marker-start:none" />
      <rect
         style="fill:#b3b3b3;fill-opacity:1;stroke:#000000;stroke-width:0;stroke-miterlimit:4;stroke-opacity:1;stroke-dasharray:none"
         id="rect3983"
         width="8.5546875"
         height="0.27734375"
         x="27.632812"
         y="17.589844" />
    </g>
    <rect
       y="-0.15234375"
       x="27.632812"
       height="0.2265625"
       width="3.7148438"
       id="rect4002"
       style="fill:#b3b3b3;fill-opacity:1;stroke:#000000;stroke-width:0;stroke-miterlimit:4;stroke-opacity:1;stroke-dasharray:none" />
  </g>
  <g
     style="fill:#dfdbd2;fill-opacity:1"
     transform="matrix(0.98513831,0,0,0.98513831,-25.246904,2.1682705)"
     id="g4024">
    <g
       style="fill:#dfdbd2;fill-opacity:1"
       id="g4026">
      <path
         style="fill:#dfdbd2;fill-opacity:1;stroke-width:0;stroke-miterlimit:4;stroke-dasharray:none;marker-start:none"
         sodipodi:nodetypes="cccscccssssccccscccccccccccsc"
         id="path4028"
         d="m 27.632707,0.0735686 c 0,0.1815164 0.168551,0.2673785 0.868685,0.3840671 0.985373,0.168551 1.426199,0.4537906 1.750334,1.0890969 0.207448,0.4019291 0.233379,1.0242699 0.233379,7.3903024 l 0,6.949476 -0.298205,0.42786 c -0.388964,0.59641 -0.972409,0.907581 -1.841093,0.998339 -0.583446,0.06484 -0.7131,0.116689 -0.7131,0.311171 0,0.233378 0.194482,0.246343 4.278596,0.246343 4.187836,0 4.278596,0 4.278596,-0.259309 0,-0.207447 -0.09076,-0.259309 -0.466757,-0.259309 -0.790892,0 -1.568818,-0.259309 -1.957781,-0.674203 l -0.363032,-0.375998 -0.0389,-7.844091 -0.0389,-7.8311273 1.607714,0 c 1.854057,0 2.593088,0.1815164 3.474737,0.8297882 0.907582,0.6742033 1.322476,1.6077144 1.387302,3.1246712 0.103724,2.3337795 -0.674202,3.8118399 -2.372676,4.5379039 -0.285239,0.11669 -1.037235,0.246344 -1.659575,0.285241 -1.063166,0.06484 -1.140959,0.09075 -1.102063,0.350066 0.0389,0.25931 0.129654,0.272275 1.465095,0.311171 1.659577,0.05186 2.670881,-0.116689 3.759978,-0.62234 1.115028,-0.505653 1.802196,-1.153926 2.294883,-2.1781957 0.375998,-0.7519957 0.427859,-1.0113037 0.466755,-2.1004015 0.0389,-1.0113046 0,-1.3613712 -0.233378,-1.9707466 -0.375997,-1.0113045 -1.348406,-2.0615052 -2.372676,-2.5671575 -1.439163,-0.7001341 -2.113366,-0.7779265 -7.506989,-0.7779265 -4.628662,0 -4.900937,0.0049 -4.900929,0.2253084 z"
         inkscape:connector-curvature="0" />
      <rect
         y="17.589844"
         x="27.632812"
         height="0.27734375"
         width="8.5546875"
         id="rect4030"
         style="fill:#dfdbd2;fill-opacity:1;stroke:#000000;stroke-width:0;stroke-miterlimit:4;stroke-opacity:1;stroke-dasharray:none" />
    </g>
    <rect
       style="fill:#dfdbd2;fill-opacity:1;stroke:#000000;stroke-width:0;stroke-miterlimit:4;stroke-opacity:1;stroke-dasharray:none"
       id="rect4032"
       width="3.7148438"
       height="0.2265625"
       x="27.632812"
       y="-0.15234375" />
  </g>
  <g
     transform="translate(0.981975,3.984375)"
     id="g3773">
    <path
       id="path2396-0"
       style="opacity:0.3"
       d="m 17.6904,9 -2.188,2.25 -2.25,-2.219 -1.25,1.281 2.25,2.188 -2.219,2.25 1.281,1.25 2.188,-2.25 2.25,2.219 1.25,-1.281 -2.25,-2.188 2.219,-2.25 z"
       inkscape:connector-curvature="0"
       sodipodi:nodetypes="ccccccccccccc" />
    <path
       id="rect3180"
       style="fill:#df382c;fill-rule:evenodd"
       d="m 17.6904,8 -2.188,2.25 -2.25,-2.219 -1.25,1.281 2.25,2.188 -2.219,2.25 1.281,1.25 2.188,-2.25 2.25,2.219 1.25,-1.281 -2.25,-2.188 2.219,-2.25 z"
       inkscape:connector-curvature="0"
       sodipodi:nodetypes="ccccccccccccc" />
  </g>
</svg>
